<svg width="89" height="22" viewBox="0 0 89 22" fill="none" xmlns="http://www.w3.org/2000/svg">
<path d="M0.49 0.390257H5.35V17.4303H15.88V21.3903H0.49V0.390257ZM28.4139 21.7503C26.2339 21.7503 24.2639 21.2803 22.5039 20.3403C20.7639 19.4003 19.3939 18.1103 18.3939 16.4703C17.4139 14.8103 16.9239 12.9503 16.9239 10.8903C16.9239 8.83026 17.4139 6.98026 18.3939 5.34026C19.3939 3.68026 20.7639 2.38026 22.5039 1.44026C24.2639 0.500258 26.2339 0.0302584 28.4139 0.0302584C30.5939 0.0302584 32.5539 0.500258 34.2939 1.44026C36.0339 2.38026 37.4039 3.68026 38.4039 5.34026C39.4039 6.98026 39.9039 8.83026 39.9039 10.8903C39.9039 12.9503 39.4039 14.8103 38.4039 16.4703C37.4039 18.1103 36.0339 19.4003 34.2939 20.3403C32.5539 21.2803 30.5939 21.7503 28.4139 21.7503ZM28.4139 17.6103C29.6539 17.6103 30.7739 17.3303 31.7739 16.7703C32.7739 16.1903 33.5539 15.3903 34.1139 14.3703C34.6939 13.3503 34.9839 12.1903 34.9839 10.8903C34.9839 9.59026 34.6939 8.43026 34.1139 7.41026C33.5539 6.39026 32.7739 5.60026 31.7739 5.04026C30.7739 4.46026 29.6539 4.17026 28.4139 4.17026C27.1739 4.17026 26.0539 4.46026 25.0539 5.04026C24.0539 5.60026 23.2639 6.39026 22.6839 7.41026C22.1239 8.43026 21.8439 9.59026 21.8439 10.8903C21.8439 12.1903 22.1239 13.3503 22.6839 14.3703C23.2639 15.3903 24.0539 16.1903 25.0539 16.7703C26.0539 17.3303 27.1739 17.6103 28.4139 17.6103ZM57.7464 10.5603H62.1864V19.0803C61.0464 19.9403 59.7264 20.6003 58.2264 21.0603C56.7264 21.5203 55.2164 21.7503 53.6964 21.7503C51.5164 21.7503 49.5564 21.2903 47.8164 20.3703C46.0764 19.4303 44.7064 18.1403 43.7064 16.5003C42.7264 14.8403 42.2364 12.9703 42.2364 10.8903C42.2364 8.81026 42.7264 6.95026 43.7064 5.31026C44.7064 3.65026 46.0864 2.36026 47.8464 1.44026C49.6064 0.500258 51.5864 0.0302584 53.7864 0.0302584C55.6264 0.0302584 57.2964 0.340258 58.7964 0.960257C60.2964 1.58026 61.5564 2.48026 62.5764 3.66026L59.4564 6.54026C57.9564 4.96026 56.1464 4.17026 54.0264 4.17026C52.6864 4.17026 51.4964 4.45026 50.4564 5.01026C49.4164 5.57026 48.6064 6.36026 48.0264 7.38026C47.4464 8.40026 47.1564 9.57026 47.1564 10.8903C47.1564 12.1903 47.4464 13.3503 48.0264 14.3703C48.6064 15.3903 49.4064 16.1903 50.4264 16.7703C51.4664 17.3303 52.6464 17.6103 53.9664 17.6103C55.3664 17.6103 56.6264 17.3103 57.7464 16.7103V10.5603ZM76.8709 21.7503C74.6909 21.7503 72.7209 21.2803 70.9609 20.3403C69.2209 19.4003 67.8509 18.1103 66.8509 16.4703C65.8709 14.8103 65.3809 12.9503 65.3809 10.8903C65.3809 8.83026 65.8709 6.98026 66.8509 5.34026C67.8509 3.68026 69.2209 2.38026 70.9609 1.44026C72.7209 0.500258 74.6909 0.0302584 76.8709 0.0302584C79.0509 0.0302584 81.0109 0.500258 82.7509 1.44026C84.4909 2.38026 85.8609 3.68026 86.8609 5.34026C87.8609 6.98026 88.3609 8.83026 88.3609 10.8903C88.3609 12.9503 87.8609 14.8103 86.8609 16.4703C85.8609 18.1103 84.4909 19.4003 82.7509 20.3403C81.0109 21.2803 79.0509 21.7503 76.8709 21.7503ZM76.8709 17.6103C78.1109 17.6103 79.2309 17.3303 80.2309 16.7703C81.2309 16.1903 82.0109 15.3903 82.5709 14.3703C83.1509 13.3503 83.4409 12.1903 83.4409 10.8903C83.4409 9.59026 83.1509 8.43026 82.5709 7.41026C82.0109 6.39026 81.2309 5.60026 80.2309 5.04026C79.2309 4.46026 78.1109 4.17026 76.8709 4.17026C75.6309 4.17026 74.5109 4.46026 73.5109 5.04026C72.5109 5.60026 71.7209 6.39026 71.1409 7.41026C70.5809 8.43026 70.3009 9.59026 70.3009 10.8903C70.3009 12.1903 70.5809 13.3503 71.1409 14.3703C71.7209 15.3903 72.5109 16.1903 73.5109 16.7703C74.5109 17.3303 75.6309 17.6103 76.8709 17.6103Z" fill="#1D1D1D"/>
</svg>
