<svg width="1920" height="1500" viewBox="0 0 1920 1500" fill="none" xmlns="http://www.w3.org/2000/svg">
<g opacity="0.5">
<path d="M1920 -142.745H0V-139.724H1920V-142.745Z" fill="#E6E6E6"/>
<path d="M1920 22.4095H0V25.4306H1920V22.4095Z" fill="#E6E6E6"/>
<path d="M1920 187.664H0V190.685H1920V187.664Z" fill="#E6E6E6"/>
<path d="M1920 352.919H0V355.94H1920V352.919Z" fill="#E6E6E6"/>
<path d="M1920 518.074H0V521.095H1920V518.074Z" fill="#E6E6E6"/>
<path d="M1920 683.329H0V686.35H1920V683.329Z" fill="#E6E6E6"/>
<path d="M1920 848.583H0V851.604H1920V848.583Z" fill="#E6E6E6"/>
<path d="M1920 1013.74H0V1016.76H1920V1013.74Z" fill="#E6E6E6"/>
<path d="M1920 1178.99H0V1182.01H1920V1178.99Z" fill="#E6E6E6"/>
<path d="M1920 1344.15H0V1347.17H1920V1344.15Z" fill="#E6E6E6"/>
<path d="M1920 -225.423H0V-222.402H1920V-225.423Z" fill="#E6E6E6"/>
<path d="M1920 1509.4H0V1512.42H1920V1509.4Z" fill="#E6E6E6"/>
<path d="M1920 -60.1677H0V-57.1466H1920V-60.1677Z" fill="#E6E6E6"/>
<path d="M1920 105.087H0V108.108H1920V105.087Z" fill="#E6E6E6"/>
<path d="M1920 270.241H0V273.263H1920V270.241Z" fill="#E6E6E6"/>
<path d="M1920 435.496H0V438.518H1920V435.496Z" fill="#E6E6E6"/>
<path d="M1920 600.751H0V603.772H1920V600.751Z" fill="#E6E6E6"/>
<path d="M1920 765.906H0V768.927H1920V765.906Z" fill="#E6E6E6"/>
<path d="M1920 931.16H0V934.182H1920V931.16Z" fill="#E6E6E6"/>
<path d="M1920 1096.31H0V1099.34H1920V1096.31Z" fill="#E6E6E6"/>
<path d="M1920 1261.57H0V1264.59H1920V1261.57Z" fill="#E6E6E6"/>
<path d="M1920 1426.82H0V1429.85H1920V1426.82Z" fill="#E6E6E6"/>
<path d="M1920 -308H0V-304.979H1920V-308Z" fill="#E6E6E6"/>
<path d="M1920 1591.98H0V1595H1920V1591.98Z" fill="#E6E6E6"/>
</g>
</svg>
